<svg width="197" height="291" viewBox="0 0 197 291" fill="none" xmlns="http://www.w3.org/2000/svg">
<path d="M196.5 39.5C196.5 48.1667 194 56.5 189 64.5C184.333 72.5 178.5 80 171.5 87C164.5 93.6667 156.833 100 148.5 106C140.167 111.667 132.5 116.667 125.5 121C118.833 125.667 113.333 129.5 109 132.5C104.667 135.5 102.5 137.833 102.5 139.5C102.5 143.833 103 150 104 158C105 165.667 106.167 174.167 107.5 183.5C109.167 192.5 110.667 201.833 112 211.5C113.667 221.167 114.833 230 115.5 238C115.5 238.333 115.667 239.833 116 242.5C116.667 245.167 117.333 248.167 118 251.5C119 254.833 119.667 257.833 120 260.5C120.667 263.5 121 265.333 121 266C121 268.333 120.833 270.833 120.5 273.5C120.5 276.5 120 279.167 119 281.5C118.333 284.167 117.167 286.333 115.5 288C113.833 289.667 111.667 290.5 109 290.5C105.333 290.5 102.667 288.833 101 285.5C99.3333 282.5 98.5 279.5 98.5 276.5C98.5 275.833 98.5 275.167 98.5 274.5C98.8333 273.833 99 273 99 272C99 268.333 97.6667 258.5 95 242.5C92.3333 226.5 89.3333 207.333 86 185C82.6667 163 79.6667 139.333 77 114C74.3333 88.3333 73 64.1667 73 41.5C73 39.8333 73.1667 38 73.5 36C73.8333 33.6667 74 31.6667 74 30C70.6667 30.3333 65.6667 31.8333 59 34.5C52.6667 37.1667 46.3333 40.5 40 44.5C33.6667 48.1667 28 52.1667 23 56.5C18.3333 60.5 16 64.1667 16 67.5H12.5C11.5 67.5 10.3333 66.8333 9 65.5C7.33333 64.1667 6 62.6667 5 61C3.66667 59.3333 2.5 57.6667 1.5 56C0.499999 54.3333 0 53.1667 0 52.5C0 45.5 4.16667 39 12.5 33C20.8333 26.6667 31.1667 21.1667 43.5 16.5C56.1667 11.5 70 7.66666 85 5C100 2 114.167 0.5 127.5 0.5C140.5 0.5 151.333 2 160 5C169 8 176.167 11.6667 181.5 16C186.833 20 190.667 24.1667 193 28.5C195.333 32.8333 196.5 36.5 196.5 39.5ZM172 38C172 34.6667 167.833 31.3333 159.5 28C151.167 24.3333 141.333 22.5 130 22.5C120 22.5 112.667 22.8333 108 23.5C103.333 24.1667 100.167 24.8333 98.5 25.5C97.8333 30.8333 97.3333 37.1667 97 44.5C96.6667 51.8333 96.5 59.3333 96.5 67C96.5 75 96.6667 82.8333 97 90.5C97.6667 97.8333 98.3333 104 99 109C103.667 106 110 102 118 97C126.333 91.6667 134.5 85.8333 142.5 79.5C150.5 72.8333 157.333 66 163 59C169 51.6667 172 44.6667 172 38Z" fill="black"/>
</svg>
